# xmcd
# 
# Track frame offsets:
#     150
#     36830
#     61797
#     86196
#     98592
#     124649
#     140989
# 
# Disc length: 2480
# 
# Revision: 0
# Processed by: cddbd v1.5.2PL0 Copyright (c) Steve Scherf et al.
# Submitted via: BonkEnc v1.0.8
# 
DISCID=5c09ae07
DTITLE=IQ - Tour CD 1
DYEAR=2008
DGENRE=Progressive Rock
TTITLE0=Frequency (Alternative Mix)
TTITLE1=Already gone
TTITLE2=Lost in paradise
TTITLE3=Crazy horses (Live)
TTITLE4=Corners (Demo)
TTITLE5=Suffragette City
TTITLE6=Crashed and burned (Live)
EXTD=
EXTT0=
EXTT1=
EXTT2=
EXTT3=
EXTT4=
EXTT5=
EXTT6=
PLAYORDER=
